<svg role="img" viewBox="0 0 24 24" xmlns="http://www.w3.org/2000/svg" id="Endeavouros--Streamline-Simple-Icons" height="24" width="24">
  <desc>
    Endeavouros Streamline Icon: https://streamlinehq.com
  </desc>
  <title>EndeavourOS</title>
  <path d="M14.03 2.036v0.002C13.303 2.138 0 18.46 0 18.46s0.957 0.272 3.135 0.588c0 0 10.435 -17.061 10.904 -17.008 -0.001 0 -0.01 -0.006 -0.01 -0.004zM3.135 19.048c-0.95 1.562 -1.71 2.818 -1.71 2.818s10.218 0.46 18.165 -0.606c11.308 -1.516 -2.324 -15.96 -5.537 -19.214 2.542 3.36 13.473 17.751 2.459 17.937 -3.89 0.066 -13.377 -0.935 -13.377 -0.935zm10.906 -17.01v0.002c0.022 0.01 0 0.002 0 -0.002zm-0.037 0.797c-0.055 0.073 -0.09 0.112 -0.156 0.205a61.39 61.39 0 0 0 -1.285 1.9 356.805 356.805 0 0 0 -3.723 5.842c-2.448 3.908 -4.467 7.208 -4.846 7.826 1.034 0.107 8.948 0.935 12.508 0.875 1.322 -0.022 2.274 -0.26 2.926 -0.623 0.652 -0.363 1.022 -0.839 1.228 -1.447 0.413 -1.217 0.063 -3.047 -0.753 -5.018 -1.537 -3.711 -4.485 -7.686 -5.899 -9.56z" fill="#235b5a" stroke-width="1"></path>
</svg>